<svg width="172" height="44" viewBox="0 0 172 44" fill="none" xmlns="http://www.w3.org/2000/svg">
<rect width="172" height="44" rx="12" fill="#FBC04C"/>
<path d="M46.9452 27.626C46.6452 27.626 46.4112 27.542 46.2432 27.374C46.0872 27.206 46.0092 26.972 46.0092 26.672V15.62C46.0092 15.308 46.0872 15.074 46.2432 14.918C46.4112 14.762 46.6452 14.684 46.9452 14.684C47.2452 14.684 47.4732 14.762 47.6292 14.918C47.7972 15.074 47.8812 15.308 47.8812 15.62V20.516H47.9172L53.4432 15.17C53.6232 15.002 53.7912 14.882 53.9472 14.81C54.1152 14.726 54.3012 14.684 54.5052 14.684C54.7812 14.684 54.9792 14.756 55.0992 14.9C55.2312 15.032 55.2852 15.194 55.2612 15.386C55.2372 15.578 55.1352 15.764 54.9552 15.944L49.2132 21.416L49.2492 20.498L55.2252 26.258C55.4412 26.462 55.5552 26.672 55.5672 26.888C55.5792 27.104 55.5132 27.284 55.3692 27.428C55.2252 27.56 55.0212 27.626 54.7572 27.626C54.5172 27.626 54.3252 27.578 54.1812 27.482C54.0372 27.386 53.8692 27.248 53.6772 27.068L47.9172 21.578H47.8812V26.672C47.8812 26.972 47.8032 27.206 47.6472 27.374C47.4912 27.542 47.2572 27.626 46.9452 27.626ZM58.594 27.626C58.306 27.626 58.084 27.548 57.928 27.392C57.772 27.224 57.694 26.996 57.694 26.708V15.602C57.694 15.302 57.772 15.074 57.928 14.918C58.084 14.762 58.306 14.684 58.594 14.684C58.882 14.684 59.104 14.762 59.26 14.918C59.428 15.074 59.512 15.302 59.512 15.602V20.588H59.26C59.524 19.916 59.938 19.412 60.502 19.076C61.066 18.728 61.714 18.554 62.446 18.554C63.142 18.554 63.718 18.686 64.174 18.95C64.642 19.202 64.99 19.592 65.218 20.12C65.446 20.636 65.56 21.29 65.56 22.082V26.708C65.56 26.996 65.482 27.224 65.326 27.392C65.17 27.548 64.948 27.626 64.66 27.626C64.36 27.626 64.132 27.548 63.976 27.392C63.82 27.224 63.742 26.996 63.742 26.708V22.19C63.742 21.434 63.592 20.882 63.292 20.534C63.004 20.186 62.548 20.012 61.924 20.012C61.192 20.012 60.604 20.24 60.16 20.696C59.728 21.152 59.512 21.764 59.512 22.532V26.708C59.512 27.32 59.206 27.626 58.594 27.626ZM70.8731 27.662C70.2611 27.662 69.7091 27.542 69.2171 27.302C68.7371 27.062 68.3591 26.738 68.0831 26.33C67.8071 25.922 67.6691 25.46 67.6691 24.944C67.6691 24.296 67.8311 23.786 68.1551 23.414C68.4911 23.03 69.0371 22.76 69.7931 22.604C70.5611 22.436 71.5931 22.352 72.8891 22.352H73.7351V23.468H72.9071C72.0431 23.468 71.3591 23.51 70.8551 23.594C70.3511 23.678 69.9911 23.822 69.7751 24.026C69.5711 24.218 69.4691 24.488 69.4691 24.836C69.4691 25.292 69.6251 25.664 69.9371 25.952C70.2491 26.228 70.6811 26.366 71.2331 26.366C71.6771 26.366 72.0671 26.264 72.4031 26.06C72.7391 25.844 73.0031 25.556 73.1951 25.196C73.3991 24.836 73.5011 24.422 73.5011 23.954V21.884C73.5011 21.2 73.3571 20.708 73.0691 20.408C72.7811 20.108 72.3071 19.958 71.6471 19.958C71.2631 19.958 70.8611 20.006 70.4411 20.102C70.0331 20.198 69.6071 20.36 69.1631 20.588C68.9591 20.684 68.7851 20.714 68.6411 20.678C68.4971 20.642 68.3831 20.564 68.2991 20.444C68.2151 20.312 68.1671 20.174 68.1551 20.03C68.1551 19.874 68.1911 19.724 68.2631 19.58C68.3471 19.436 68.4851 19.328 68.6771 19.256C69.2051 19.004 69.7271 18.824 70.2431 18.716C70.7591 18.608 71.2451 18.554 71.7011 18.554C72.5051 18.554 73.1651 18.68 73.6811 18.932C74.2091 19.184 74.5991 19.568 74.8511 20.084C75.1031 20.6 75.2291 21.266 75.2291 22.082V26.708C75.2291 26.996 75.1571 27.224 75.0131 27.392C74.8691 27.548 74.6591 27.626 74.3831 27.626C74.1191 27.626 73.9091 27.548 73.7531 27.392C73.5971 27.224 73.5191 26.996 73.5191 26.708V25.538H73.6811C73.5851 25.982 73.4051 26.366 73.1411 26.69C72.8891 27.002 72.5711 27.242 72.1871 27.41C71.8031 27.578 71.3651 27.662 70.8731 27.662ZM72.4391 17.456C72.3431 17.6 72.2231 17.684 72.0791 17.708C71.9471 17.732 71.8151 17.708 71.6831 17.636C71.5511 17.564 71.4551 17.462 71.3951 17.33C71.3471 17.198 71.3591 17.054 71.4311 16.898L72.8891 14.072C72.9851 13.88 73.1051 13.754 73.2491 13.694C73.4051 13.634 73.5611 13.628 73.7171 13.676C73.8851 13.712 74.0231 13.784 74.1311 13.892C74.2511 14 74.3231 14.138 74.3471 14.306C74.3711 14.462 74.3291 14.618 74.2211 14.774L72.4391 17.456ZM78.6691 27.626C78.3811 27.626 78.1591 27.548 78.0031 27.392C77.8471 27.224 77.7691 26.996 77.7691 26.708V19.508C77.7691 19.208 77.8471 18.98 78.0031 18.824C78.1591 18.668 78.3751 18.59 78.6511 18.59C78.9391 18.59 79.1551 18.668 79.2991 18.824C79.4551 18.98 79.5331 19.208 79.5331 19.508V20.984L79.3351 20.588C79.5751 19.952 79.9471 19.454 80.4511 19.094C80.9551 18.734 81.5611 18.554 82.2691 18.554C83.0011 18.554 83.5951 18.728 84.0511 19.076C84.5071 19.424 84.8191 19.958 84.9871 20.678H84.7351C84.9631 20.018 85.3531 19.502 85.9051 19.13C86.4571 18.746 87.0991 18.554 87.8311 18.554C88.5031 18.554 89.0551 18.686 89.4871 18.95C89.9191 19.202 90.2431 19.592 90.4591 20.12C90.6751 20.636 90.7831 21.29 90.7831 22.082V26.708C90.7831 26.996 90.6991 27.224 90.5311 27.392C90.3751 27.548 90.1531 27.626 89.8651 27.626C89.5771 27.626 89.3551 27.548 89.1991 27.392C89.0431 27.224 88.9651 26.996 88.9651 26.708V22.172C88.9651 21.428 88.8331 20.882 88.5691 20.534C88.3171 20.186 87.8971 20.012 87.3091 20.012C86.6491 20.012 86.1271 20.24 85.7431 20.696C85.3591 21.152 85.1671 21.782 85.1671 22.586V26.708C85.1671 26.996 85.0891 27.224 84.9331 27.392C84.7771 27.548 84.5551 27.626 84.2671 27.626C83.9791 27.626 83.7511 27.548 83.5831 27.392C83.4271 27.224 83.3491 26.996 83.3491 26.708V22.172C83.3491 21.428 83.2231 20.882 82.9711 20.534C82.7191 20.186 82.2991 20.012 81.7111 20.012C81.0511 20.012 80.5291 20.24 80.1451 20.696C79.7731 21.152 79.5871 21.782 79.5871 22.586V26.708C79.5871 27.32 79.2811 27.626 78.6691 27.626ZM98.971 30.866C98.683 30.866 98.461 30.788 98.305 30.632C98.149 30.476 98.071 30.248 98.071 29.948V19.508C98.071 19.208 98.149 18.98 98.305 18.824C98.461 18.668 98.677 18.59 98.953 18.59C99.241 18.59 99.463 18.668 99.619 18.824C99.775 18.98 99.853 19.208 99.853 19.508V21.074L99.655 20.696C99.847 20.048 100.225 19.532 100.789 19.148C101.353 18.752 102.019 18.554 102.787 18.554C103.567 18.554 104.245 18.74 104.821 19.112C105.409 19.484 105.859 20.006 106.171 20.678C106.495 21.35 106.657 22.16 106.657 23.108C106.657 24.032 106.495 24.842 106.171 25.538C105.859 26.222 105.415 26.75 104.839 27.122C104.263 27.482 103.579 27.662 102.787 27.662C102.031 27.662 101.371 27.47 100.807 27.086C100.243 26.702 99.865 26.192 99.673 25.556H99.889V29.948C99.889 30.248 99.805 30.476 99.637 30.632C99.481 30.788 99.259 30.866 98.971 30.866ZM102.337 26.258C102.841 26.258 103.279 26.138 103.651 25.898C104.023 25.658 104.311 25.304 104.515 24.836C104.719 24.368 104.821 23.792 104.821 23.108C104.821 22.076 104.593 21.296 104.137 20.768C103.693 20.24 103.093 19.976 102.337 19.976C101.845 19.976 101.407 20.096 101.023 20.336C100.651 20.564 100.363 20.912 100.159 21.38C99.955 21.848 99.853 22.424 99.853 23.108C99.853 24.128 100.081 24.908 100.537 25.448C100.993 25.988 101.593 26.258 102.337 26.258ZM109.606 27.626C109.318 27.626 109.096 27.548 108.94 27.392C108.784 27.224 108.706 26.996 108.706 26.708V15.602C108.706 15.302 108.784 15.074 108.94 14.918C109.096 14.762 109.318 14.684 109.606 14.684C109.894 14.684 110.116 14.762 110.272 14.918C110.44 15.074 110.524 15.302 110.524 15.602V20.588H110.272C110.536 19.916 110.95 19.412 111.514 19.076C112.078 18.728 112.726 18.554 113.458 18.554C114.154 18.554 114.73 18.686 115.186 18.95C115.654 19.202 116.002 19.592 116.23 20.12C116.458 20.636 116.572 21.29 116.572 22.082V26.708C116.572 26.996 116.494 27.224 116.338 27.392C116.182 27.548 115.96 27.626 115.672 27.626C115.372 27.626 115.144 27.548 114.988 27.392C114.832 27.224 114.754 26.996 114.754 26.708V22.19C114.754 21.434 114.604 20.882 114.304 20.534C114.016 20.186 113.56 20.012 112.936 20.012C112.204 20.012 111.616 20.24 111.172 20.696C110.74 21.152 110.524 21.764 110.524 22.532V26.708C110.524 27.32 110.218 27.626 109.606 27.626ZM121.885 27.662C121.273 27.662 120.721 27.542 120.229 27.302C119.749 27.062 119.371 26.738 119.095 26.33C118.819 25.922 118.681 25.46 118.681 24.944C118.681 24.296 118.843 23.786 119.167 23.414C119.503 23.03 120.049 22.76 120.805 22.604C121.573 22.436 122.605 22.352 123.901 22.352H124.747V23.468H123.919C123.055 23.468 122.371 23.51 121.867 23.594C121.363 23.678 121.003 23.822 120.787 24.026C120.583 24.218 120.481 24.488 120.481 24.836C120.481 25.292 120.637 25.664 120.949 25.952C121.261 26.228 121.693 26.366 122.245 26.366C122.689 26.366 123.079 26.264 123.415 26.06C123.751 25.844 124.015 25.556 124.207 25.196C124.411 24.836 124.513 24.422 124.513 23.954V21.884C124.513 21.2 124.369 20.708 124.081 20.408C123.793 20.108 123.319 19.958 122.659 19.958C122.275 19.958 121.873 20.006 121.453 20.102C121.045 20.198 120.619 20.36 120.175 20.588C119.971 20.684 119.797 20.714 119.653 20.678C119.509 20.642 119.395 20.564 119.311 20.444C119.227 20.312 119.179 20.174 119.167 20.03C119.167 19.874 119.203 19.724 119.275 19.58C119.359 19.436 119.497 19.328 119.689 19.256C120.217 19.004 120.739 18.824 121.255 18.716C121.771 18.608 122.257 18.554 122.713 18.554C123.517 18.554 124.177 18.68 124.693 18.932C125.221 19.184 125.611 19.568 125.863 20.084C126.115 20.6 126.241 21.266 126.241 22.082V26.708C126.241 26.996 126.169 27.224 126.025 27.392C125.881 27.548 125.671 27.626 125.395 27.626C125.131 27.626 124.921 27.548 124.765 27.392C124.609 27.224 124.531 26.996 124.531 26.708V25.538H124.693C124.597 25.982 124.417 26.366 124.153 26.69C123.901 27.002 123.583 27.242 123.199 27.41C122.815 27.578 122.377 27.662 121.885 27.662ZM123.451 17.456C123.355 17.6 123.235 17.684 123.091 17.708C122.959 17.732 122.827 17.708 122.695 17.636C122.563 17.564 122.467 17.462 122.407 17.33C122.359 17.198 122.371 17.054 122.443 16.898L123.901 14.072C123.997 13.88 124.117 13.754 124.261 13.694C124.417 13.634 124.573 13.628 124.729 13.676C124.897 13.712 125.035 13.784 125.143 13.892C125.263 14 125.335 14.138 125.359 14.306C125.383 14.462 125.341 14.618 125.233 14.774L123.451 17.456Z" fill="black"/>
</svg>
